<svg width="297" height="182" viewBox="0 0 297 182" fill="none" xmlns="http://www.w3.org/2000/svg">
<path d="M9 88.7C7.8 88.7 6.53333 88.5 5.2 88.1C3.86667 87.7 2.73333 86.9667 1.8 85.9C0.8 84.9 0.3 83.5333 0.3 81.8C0.3 80.8667 0.633333 79.8667 1.3 78.8C1.9 77.6667 2.7 77.0667 3.7 77C3.43333 77.2667 3.23333 77.7 3.1 78.3C3.03333 78.9 3 79.4333 3 79.9C3.06667 81.0333 3.56667 82 4.5 82.8C5.43333 83.6 6.9 84 8.9 84C11.4333 84 14.0667 83.2667 16.8 81.8C19.6 80.2667 22.4 78.2667 25.2 75.8C28.0667 73.2667 30.8333 70.4667 33.5 67.4C36.2333 64.3333 38.7333 61.2333 41 58.1C43.1333 55.1 45.6333 51.7667 48.5 48.1C51.3667 44.4333 54.4667 40.8667 57.8 37.4C61.1333 33.9333 64.5333 31.0667 68 28.8C66.4 27.8667 64.4333 27.1333 62.1 26.6C59.7667 26 57 25.7 53.8 25.7C49.1333 25.7 44.7667 26.3667 40.7 27.7C36.6333 29.0333 32.9333 30.8 29.6 33C26.2667 35.2 23.3667 37.6333 20.9 40.3C18.5 42.9 16.6333 45.5667 15.3 48.3C14.0333 50.9667 13.4 53.4333 13.4 55.7C13.4 57.9 14.0667 59.7667 15.4 61.3C16.8 62.7667 19.0333 63.6333 22.1 63.9C22.5 63.9 22.7 64 22.7 64.2C22.7 64.4667 22.4 64.5667 21.8 64.5C17.8 64.1667 14.8333 63.0333 12.9 61.1C11.0333 59.1 10.1 56.6667 10.1 53.8C10.1 50.8 11.0667 47.6333 13 44.3C15 40.9 17.8667 37.7 21.6 34.7C25.3333 31.6333 29.8667 29.1667 35.2 27.3C40.6 25.3667 46.6667 24.4 53.4 24.4C57.0667 24.4 60.2667 24.7 63 25.3C65.7333 25.9 68.0667 26.6667 70 27.6C73.6667 25.4 77.2333 24.3 80.7 24.3C82.4333 24.3 84.1 24.7667 85.7 25.7C87.3667 26.5667 88.2 28.2333 88.2 30.7C87.8 29.6333 86.8 28.6333 85.2 27.7C83.6667 26.7 81.8667 26.2 79.8 26.2C78.4 26.2 77 26.4 75.6 26.8C74.2 27.2 72.8333 27.7667 71.5 28.5C73.8333 29.9667 75.5333 31.6667 76.6 33.6C77.6667 35.5333 78.2 37.5333 78.2 39.6C78.2 42.3333 77.2667 45 75.4 47.6C73.5333 50.2 71.0667 52.3333 68 54C64.9333 55.6 61.5667 56.4 57.9 56.4C57.9667 56.6667 58 56.9333 58 57.2C58 57.4667 58 57.7667 58 58.1C58 60.0333 57.7 62.5 57.1 65.5C56.9667 66.3667 56.7333 67.7333 56.4 69.6C56.1333 71.4667 56 73.3667 56 75.3C56 77.5667 56.3 79.5667 56.9 81.3C57.5667 83.0333 58.8 83.9 60.6 83.9C62.2667 83.9 63.9667 83.3 65.7 82.1C67.4333 80.8333 69.0333 79.4 70.5 77.8C72.0333 76.2 73.2333 74.9 74.1 73.9C74.3667 73.9 74.5 74.1 74.5 74.5C74.5 75.1 74.3667 75.5667 74.1 75.9C71.0333 79.5 68.2 82.1667 65.6 83.9C63 85.5667 60.1333 86.4 57 86.4C55.4667 86.4 54.0667 85.9 52.8 84.9C51.5333 83.8333 50.9 81.8 50.9 78.8C50.9 77.1333 51.2 75.3 51.8 73.3C52.4 71.2333 53.0667 69.1667 53.8 67.1C54.6 65.0333 55.3 63.1667 55.9 61.5C56.5 59.7667 56.8 58.4333 56.8 57.5C56.8 56.9667 56.7333 56.6333 56.6 56.5C55.7333 56.3667 55.0667 56.1 54.6 55.7C54.2 55.2333 54 54.8 54 54.4C54 53.8667 54.3333 53.6 55 53.6C56.4667 53.6 57.4 54.3333 57.8 55.8C59.8 55.6 61.7667 54.9333 63.7 53.8C65.6333 52.6 67.3333 51.1667 68.8 49.5C70.3333 47.7667 71.5333 45.9333 72.4 44C73.3333 42.0667 73.8 40.2 73.8 38.4C73.8 36.8 73.4333 35.2667 72.7 33.8C71.9667 32.2667 70.8333 30.9 69.3 29.7C66.7 31.3667 64.1333 33.5 61.6 36.1C59.1333 38.6333 56.7333 41.3667 54.4 44.3C52.1333 47.1667 50 50 48 52.8C46 55.6 44.2 58.1333 42.6 60.4C40.2667 63.6 37.8667 66.8667 35.4 70.2C32.9333 73.5333 30.3333 76.6 27.6 79.4C24.8667 82.2 21.9667 84.4333 18.9 86.1C15.8333 87.8333 12.5333 88.7 9 88.7ZM81.6703 85.7C78.6036 85.7 76.437 85.0333 75.1703 83.7C73.9036 82.3667 73.2703 80.5667 73.2703 78.3C73.2703 76.1 73.8703 73.8 75.0703 71.4C76.337 68.9333 77.9036 66.6 79.7703 64.4C80.9036 63.0667 82.3036 61.6667 83.9703 60.2C85.637 58.7333 87.437 57.3667 89.3703 56.1C91.3036 54.7667 93.2036 53.7 95.0703 52.9C97.0036 52.0333 98.7036 51.6 100.17 51.6C100.97 51.6 101.704 51.8 102.37 52.2C103.037 52.5333 103.37 53.3 103.37 54.5C103.37 56.1667 102.57 57.7667 100.97 59.3C99.3703 60.7667 97.5703 62.1333 95.5703 63.4C93.3036 64.8667 90.937 66.1 88.4703 67.1C86.0036 68.1 83.8703 68.8667 82.0703 69.4C81.0703 71 80.2703 72.6333 79.6703 74.3C79.0703 75.9667 78.7703 77.6 78.7703 79.2C78.7703 80.9333 79.1703 82.1333 79.9703 82.8C80.837 83.4 81.837 83.7 82.9703 83.7C85.037 83.7 86.9036 83.2333 88.5703 82.3C90.3036 81.3 91.9036 80.0333 93.3703 78.5C94.837 76.9667 96.237 75.4333 97.5703 73.9C97.837 73.9 97.9703 74.1 97.9703 74.5C97.9703 75.1 97.837 75.5667 97.5703 75.9C96.237 77.4333 94.7703 78.9667 93.1703 80.5C91.637 82.0333 89.937 83.3 88.0703 84.3C86.2036 85.2333 84.0703 85.7 81.6703 85.7ZM83.2703 68C85.0036 67.4 87.037 66.5667 89.3703 65.5C91.7703 64.4333 93.8703 63.2667 95.6703 62C96.0703 61.7333 96.7703 61.2 97.7703 60.4C98.7703 59.5333 99.7036 58.6 100.57 57.6C101.437 56.5333 101.87 55.6 101.87 54.8C101.87 53.7333 101.337 53.2 100.27 53.2C99.137 53.2 97.837 53.7 96.3703 54.7C94.9703 55.7 93.837 56.5667 92.9703 57.3C91.3703 58.7667 89.7036 60.4 87.9703 62.2C86.237 64 84.6703 65.9333 83.2703 68ZM122.505 47.4C121.172 47.4 120.505 46.8667 120.505 45.8C120.505 45.4667 120.605 45.1 120.805 44.7C121.139 43.9 121.705 43.2 122.505 42.6C123.372 41.9333 124.205 41.6 125.005 41.6C126.272 41.6 126.905 42.1333 126.905 43.2C126.905 44.2 126.439 45.1333 125.505 46C124.572 46.8667 123.572 47.3333 122.505 47.4ZM100.805 85.2C99.0055 85.2 97.7388 84.7333 97.0055 83.8C96.2055 82.8 95.8055 81.5667 95.8055 80.1C95.8055 78.1667 96.4055 76.1 97.6055 73.9C98.7388 71.6333 100.172 69.4 101.905 67.2C103.639 64.9333 105.405 62.8333 107.205 60.9C109.005 58.9 110.572 57.2667 111.905 56C113.172 54.7333 114.472 53.8 115.805 53.2C117.139 52.6 118.272 52.2 119.205 52C120.205 51.7333 120.705 51.6 120.705 51.6C119.239 53.2667 117.239 55.6333 114.705 58.7C112.172 61.7667 109.672 65.0333 107.205 68.5C107.005 68.7667 106.539 69.4333 105.805 70.5C105.072 71.5667 104.239 72.8 103.305 74.2C102.439 75.6 101.672 76.9667 101.005 78.3C100.405 79.6333 100.105 80.7 100.105 81.5C100.105 82.7667 100.772 83.4 102.105 83.4C103.105 83.4 104.172 83.0333 105.305 82.3C106.505 81.5667 107.705 80.6667 108.905 79.6C110.105 78.5333 111.172 77.5 112.105 76.5C113.105 75.4333 113.872 74.5667 114.405 73.9C114.672 73.9 114.805 74.1 114.805 74.5C114.805 75.1 114.672 75.5667 114.405 75.9C111.872 78.8333 109.572 81.1333 107.505 82.8C105.505 84.4 103.272 85.2 100.805 85.2ZM117.202 85.3C113.869 85.3 112.202 83.7667 112.202 80.7C112.202 79.7 112.436 78.5333 112.902 77.2C113.369 75.8667 114.236 74.1 115.502 71.9C117.236 68.9 119.669 65.3667 122.802 61.3C126.002 57.2333 129.402 53.2667 133.002 49.4C136.136 45.8667 139.536 42.6333 143.202 39.7C146.936 36.7 150.802 34.6333 154.802 33.5C155.402 33.3 156.102 33.1333 156.902 33C157.702 32.8667 158.536 32.8 159.402 32.8C161.002 32.8 162.369 33.0333 163.502 33.5C164.036 33.7667 164.569 34.1333 165.102 34.6C165.636 35 166.002 35.6 166.202 36.4C165.469 35.8 164.636 35.3667 163.702 35.1C162.769 34.7667 161.636 34.6 160.302 34.6C156.836 34.6 153.502 35.7333 150.302 38C147.102 40.2667 143.902 43.2 140.702 46.8C137.569 50.3333 134.269 54.1 130.802 58.1C129.469 59.6333 128.002 61.5333 126.402 63.8C124.802 66.0667 123.269 68.3333 121.802 70.6C120.402 72.8667 119.269 74.8 118.402 76.4C117.936 77.1333 117.569 77.9333 117.302 78.8C117.102 79.6 117.002 80.2667 117.002 80.8C117.002 82.4 117.602 83.2 118.802 83.2C120.069 83.2 121.469 82.6 123.002 81.4C124.602 80.2 126.102 78.8667 127.502 77.4C128.969 75.9333 130.069 74.7667 130.802 73.9C131.069 73.9 131.202 74.1 131.202 74.5C131.202 75.1 131.069 75.5667 130.802 75.9C128.136 78.9667 125.669 81.3 123.402 82.9C121.202 84.5 119.136 85.3 117.202 85.3ZM118.209 109.6C116.275 109.6 114.942 109.433 114.209 109.1C113.409 108.833 113.009 108.6 113.009 108.4C113.009 108.133 113.242 108 113.709 108C114.042 108 114.375 108 114.709 108C115.042 108.067 115.375 108.1 115.709 108.1C118.109 108.1 120.509 107.367 122.909 105.9C125.309 104.433 127.642 102.467 129.909 100C132.175 97.6 134.342 94.9333 136.409 92C138.475 89.0667 140.342 86.1667 142.009 83.3L149.709 70C148.842 71 147.709 72.3333 146.309 74C144.975 75.6667 143.509 77.3333 141.909 79C140.309 80.6667 138.742 82.1 137.209 83.3C135.675 84.4333 134.242 85 132.909 85C131.309 85 130.175 84.6333 129.509 83.9C128.842 83.1667 128.509 82.2333 128.509 81.1C128.509 79.9667 128.775 78.7333 129.309 77.4C129.775 76.0667 130.375 74.7333 131.109 73.4C132.375 71.2667 133.809 69.1333 135.409 67C137.075 64.8 138.742 62.7667 140.409 60.9C142.142 58.9667 143.675 57.3333 145.009 56C146.275 54.7333 147.575 53.8 148.909 53.2C150.242 52.6 151.375 52.2 152.309 52C153.309 51.7333 153.809 51.6 153.809 51.6C152.342 53.2667 150.342 55.6333 147.809 58.7C145.342 61.7667 142.842 65.0333 140.309 68.5C140.042 68.8333 139.542 69.5333 138.809 70.6C138.142 71.6667 137.409 72.8667 136.609 74.2C135.809 75.4667 135.109 76.7333 134.509 78C133.975 79.2 133.709 80.1667 133.709 80.9C133.709 81.6333 134.109 81.9667 134.909 81.9C135.775 81.8333 136.909 81.2 138.309 80C139.709 78.8 141.209 77.3333 142.809 75.6C144.409 73.8667 145.909 72.1667 147.309 70.5C148.775 68.7667 149.975 67.3333 150.909 66.2C151.842 65.1333 152.942 63.8 154.209 62.2C155.475 60.6 156.842 59 158.309 57.4C159.775 55.7333 161.309 54.3667 162.909 53.3C164.575 52.1667 166.242 51.6 167.909 51.6C168.509 51.6 168.875 51.6667 169.009 51.8C166.609 52.9333 164.375 54.7667 162.309 57.3C160.242 59.8333 158.275 62.8 156.409 66.2C154.542 69.6 152.642 73.2 150.709 77C148.842 80.7333 146.842 84.4 144.709 88C142.575 91.6667 140.242 94.9667 137.709 97.9C134.709 101.367 131.509 104.167 128.109 106.3C124.642 108.5 121.342 109.6 118.209 109.6Z" fill="url(#paint0_linear_316_2)"/>
<path d="M147.31 113.226C145.877 113.226 144.773 112.911 143.999 112.28C143.254 111.621 142.881 110.718 142.881 109.571C142.881 109.428 142.895 109.256 142.924 109.055C142.953 108.854 142.981 108.682 143.01 108.539C143.182 107.564 143.598 106.633 144.257 105.744C144.945 104.827 145.762 104.01 146.708 103.293C147.683 102.576 148.7 101.989 149.761 101.53C150.85 101.071 151.897 100.813 152.9 100.756C152.871 100.613 152.843 100.441 152.814 100.24C152.814 100.011 152.814 99.7527 152.814 99.466C152.814 98.606 153.072 97.7317 153.588 96.843C154.104 95.9257 154.792 95.0943 155.652 94.349C156.541 93.575 157.53 92.9587 158.619 92.5C159.708 92.0127 160.826 91.769 161.973 91.769C162.088 91.769 162.217 91.769 162.36 91.769C162.532 91.769 162.675 91.7833 162.79 91.812C163.535 91.898 164.195 92.1273 164.768 92.5C165.341 92.844 165.628 93.3313 165.628 93.962C165.628 94.1053 165.599 94.2917 165.542 94.521C165.255 95.4383 164.682 96.2697 163.822 97.015C162.991 97.7603 162.002 98.305 160.855 98.649C160.74 98.6777 160.64 98.7063 160.554 98.735C160.468 98.735 160.396 98.735 160.339 98.735C160.224 98.735 160.167 98.7063 160.167 98.649C160.167 98.477 160.353 98.3193 160.726 98.176C161.643 97.746 162.432 97.2013 163.091 96.542C163.75 95.854 164.18 95.1087 164.381 94.306C164.438 93.9047 164.338 93.532 164.08 93.188C163.851 92.844 163.292 92.672 162.403 92.672C161.658 92.672 160.812 92.9157 159.866 93.403C158.92 93.8617 157.945 94.5497 156.942 95.467C156.34 96.0117 155.795 96.6853 155.308 97.488C154.821 98.2907 154.391 99.1363 154.018 100.025C154.018 100.054 154.004 100.097 153.975 100.154C153.946 100.211 153.932 100.269 153.932 100.326C153.875 100.441 153.846 100.57 153.846 100.713C154.677 100.684 155.365 100.842 155.91 101.186C156.225 101.358 156.354 101.473 156.297 101.53C156.211 101.788 155.881 101.917 155.308 101.917C154.563 101.917 153.989 101.817 153.588 101.616C153.215 101.415 153 101.172 152.943 100.885C151.768 101.086 150.607 101.616 149.46 102.476C148.342 103.336 147.396 104.354 146.622 105.529C145.848 106.704 145.361 107.894 145.16 109.098C145.074 109.528 145.031 109.929 145.031 110.302C145.031 110.99 145.217 111.549 145.59 111.979C145.991 112.409 146.708 112.624 147.74 112.624C148.629 112.624 149.532 112.423 150.449 112.022C151.395 111.592 152.298 111.047 153.158 110.388C154.018 109.7 154.778 108.94 155.437 108.109C156.096 107.278 156.584 106.461 156.899 105.658H156.77L155.394 105.314L152.814 104.841C152.814 104.841 152.671 104.913 152.384 105.056C152.097 105.171 151.753 105.3 151.352 105.443C150.979 105.586 150.607 105.658 150.234 105.658C149.718 105.658 149.46 105.543 149.46 105.314C149.46 105.085 149.632 104.87 149.976 104.669C150.349 104.44 150.793 104.325 151.309 104.325C151.51 104.325 151.696 104.325 151.868 104.325C152.069 104.325 152.269 104.354 152.47 104.411L153.33 103.766C153.903 103.422 154.505 103.135 155.136 102.906C155.767 102.677 156.412 102.562 157.071 102.562C157.759 102.591 158.261 102.748 158.576 103.035C158.92 103.322 159.092 103.68 159.092 104.11C159.092 104.569 158.992 104.999 158.791 105.4H158.662C158.805 105.429 158.963 105.443 159.135 105.443C159.307 105.443 159.479 105.443 159.651 105.443C160.568 105.443 161.514 105.3 162.489 105.013C163.492 104.726 164.338 104.296 165.026 103.723C165.714 103.121 166.058 102.376 166.058 101.487C166.058 101.258 166.001 101 165.886 100.713C165.8 100.426 165.628 100.24 165.37 100.154C165.542 100.097 165.714 100.068 165.886 100.068C166.373 100.068 166.789 100.24 167.133 100.584C167.506 100.928 167.692 101.344 167.692 101.831C167.692 102.863 167.334 103.694 166.617 104.325C165.929 104.956 165.098 105.414 164.123 105.701C163.177 105.959 162.303 106.088 161.5 106.088C161.041 106.088 160.568 106.088 160.081 106.088C159.594 106.059 159.063 106.002 158.49 105.916L158.189 106.389C157.759 107.077 157.143 107.822 156.34 108.625C155.566 109.399 154.677 110.144 153.674 110.861C152.671 111.549 151.624 112.122 150.535 112.581C149.446 113.011 148.371 113.226 147.31 113.226ZM156.942 105.185C156.999 105.185 157.028 105.185 157.028 105.185L157.2 104.583C157.229 104.497 157.243 104.382 157.243 104.239C157.243 103.981 157.171 103.766 157.028 103.594C156.885 103.393 156.627 103.293 156.254 103.293C156.168 103.293 156.082 103.293 155.996 103.293C155.91 103.293 155.824 103.307 155.738 103.336C155.537 103.365 155.308 103.436 155.05 103.551C154.792 103.637 154.52 103.752 154.233 103.895L153.76 104.196C153.703 104.225 153.617 104.268 153.502 104.325C153.416 104.382 153.344 104.44 153.287 104.497H153.201L154.19 104.712C154.448 104.741 154.706 104.784 154.964 104.841C155.222 104.898 155.48 104.941 155.738 104.97L156.942 105.185Z" fill="#A57C00"/>
<path d="M172.1 150.1C169.7 150.1 167.367 149.7 165.1 148.9C162.833 148.1 160.967 146.9 159.5 145.3C157.967 143.633 157.2 141.5 157.2 138.9C157.2 135.767 158.433 132.533 160.9 129.2C163.367 125.867 166.767 123.2 171.1 121.2C174.833 119.533 178.733 118.333 182.8 117.6C186.933 116.8 191.2 116.4 195.6 116.4C198.733 116.4 201.833 116.533 204.9 116.8C207.967 117 211.033 117.3 214.1 117.7C217.433 114.033 220.8 110.567 224.2 107.3C227.6 103.967 230.967 101.1 234.3 98.7C237.7 96.3 241.067 94.7333 244.4 94C242.533 94 240.233 93.9 237.5 93.7C234.767 93.4333 231.833 93.1667 228.7 92.9C225.633 92.6333 222.533 92.5 219.4 92.5C214.867 92.5 210.6 92.9667 206.6 93.9C202.667 94.8333 199.633 96.7667 197.5 99.7C196.9 100.567 196.467 101.4 196.2 102.2C195.933 103 195.8 103.767 195.8 104.5C195.8 105.433 196 106.267 196.4 107C196.667 107.267 196.967 107.567 197.3 107.9C197.633 108.167 197.933 108.3 198.2 108.3C197.933 108.567 197.6 108.7 197.2 108.7C196.733 108.7 196.267 108.6 195.8 108.4C195.4 108.133 195.067 107.867 194.8 107.6C194.133 106.867 193.633 106.033 193.3 105.1C192.967 104.1 192.8 103.133 192.8 102.2C192.8 100.333 193.233 98.7667 194.1 97.5C196.033 94.9667 198.433 93.1 201.3 91.9C204.233 90.7 207.9 90.1 212.3 90.1C212.833 90.1 213.367 90.1 213.9 90.1C214.5 90.1 215.067 90.1333 215.6 90.2C220.6 90.4667 225.5 90.9667 230.3 91.7C235.1 92.4333 240.2 92.8 245.6 92.8C248.533 92.8 251.167 92.6667 253.5 92.4C255.9 92.0667 257.467 91.5 258.2 90.7H258.4C259.2 90.7 259.6 91.1333 259.6 92C259.533 93.1333 258.933 93.9 257.8 94.3C256.733 94.7 255.533 94.9 254.2 94.9C253.133 94.9 252.067 94.8333 251 94.7C250 94.5667 249.167 94.4667 248.5 94.4C245.167 94.6 241.667 95.8667 238 98.2C234.4 100.467 230.767 103.367 227.1 106.9C223.433 110.367 219.8 114.067 216.2 118C217.4 118.2 218.6 118.4 219.8 118.6C221.067 118.8 222.3 119.033 223.5 119.3C225.7 116.567 227.967 113.933 230.3 111.4C232.633 108.867 234.9 106.533 237.1 104.4C238.567 102.933 240.167 101.533 241.9 100.2C243.633 98.8667 245.333 97.7667 247 96.9C248.667 95.9667 250.133 95.5 251.4 95.5C250.533 96.1667 249.2 97.4 247.4 99.2C245.6 100.933 243.933 102.633 242.4 104.3C240.533 106.367 238.367 108.8 235.9 111.6C233.5 114.4 231.133 117.3 228.8 120.3C230.067 120.567 231.3 120.833 232.5 121.1C233.767 121.367 235.033 121.667 236.3 122C236.833 122.067 237.1 122.267 237.1 122.6C237.1 122.733 236.967 122.867 236.7 123C236.5 123.133 236.233 123.167 235.9 123.1L227.8 121.5C225.133 124.833 222.7 128.033 220.5 131.1C218.367 134.167 216.833 136.6 215.9 138.4C215.433 139.267 215.033 140.167 214.7 141.1C214.367 141.967 214.2 142.767 214.2 143.5C214.2 144.833 214.767 145.5 215.9 145.5C216.633 145.5 217.633 145.167 218.9 144.5C220.833 143.367 222.533 142.033 224 140.5C225.533 138.967 226.967 137.433 228.3 135.9C228.567 135.9 228.7 136.1 228.7 136.5C228.7 137.1 228.567 137.567 228.3 137.9C225.233 141.5 222.667 143.967 220.6 145.3C218.6 146.567 216.367 147.2 213.9 147.2C212.3 147.2 211.133 146.833 210.4 146.1C209.733 145.3 209.4 144.333 209.4 143.2C209.4 142.067 209.633 140.833 210.1 139.5C210.633 138.167 211.267 136.867 212 135.6C213.333 133.267 214.9 130.833 216.7 128.3C218.5 125.7 220.433 123.1 222.5 120.5C221.233 120.3 219.967 120.1 218.7 119.9C217.5 119.7 216.233 119.533 214.9 119.4C212.167 122.467 209.467 125.467 206.8 128.4C204.133 131.333 201.567 134 199.1 136.4C196.633 138.8 194.067 141.067 191.4 143.2C188.733 145.267 185.833 146.933 182.7 148.2C179.567 149.467 176.033 150.1 172.1 150.1ZM172.5 146.3C174.767 146.3 177.133 146.033 179.6 145.5C182.067 144.967 184.733 143.9 187.6 142.3C190.533 140.7 193.733 138.333 197.2 135.2C199.733 132.867 202.3 130.333 204.9 127.6C207.5 124.8 210.133 121.967 212.8 119.1C211 118.9 209.167 118.733 207.3 118.6C205.5 118.467 203.667 118.4 201.8 118.4C196.733 118.4 191.533 118.667 186.2 119.2C180.933 119.667 175.833 121.067 170.9 123.4C167.1 125.067 164.267 127.167 162.4 129.7C160.467 132.233 159.5 134.667 159.5 137C159.5 139.533 160.6 141.733 162.8 143.6C165 145.4 168.233 146.3 172.5 146.3ZM244.132 147.1C242.732 147.1 241.732 146.733 241.132 146C240.532 145.2 240.232 144.2 240.232 143C240.232 141.2 240.865 139.167 242.132 136.9C243.399 134.567 245.032 132.133 247.032 129.6C249.099 127.067 251.232 124.567 253.432 122.1C255.699 119.633 257.832 117.367 259.832 115.3C258.832 115.3 257.732 115.567 256.532 116.1C255.399 116.633 254.232 117.267 253.032 118C251.232 119.2 249.265 120.8 247.132 122.8C244.999 124.8 242.865 126.933 240.732 129.2C238.599 131.467 236.565 133.7 234.632 135.9C233.099 137.7 231.865 139.2 230.932 140.4C230.065 141.6 229.299 142.7 228.632 143.7C228.032 144.633 227.365 145.7 226.632 146.9C225.565 146.9 225.032 146.267 225.032 145C225.032 143.667 225.465 142.067 226.332 140.2C227.132 138.333 227.832 136.867 228.432 135.8C230.165 132.867 232.132 129.8 234.332 126.6C236.599 123.333 238.699 120.467 240.632 118C241.632 116.667 242.699 115.7 243.832 115.1C244.965 114.433 245.932 114.033 246.732 113.9C247.532 113.7 247.932 113.6 247.932 113.6C247.532 114.2 246.699 115.467 245.432 117.4C244.165 119.333 242.699 121.6 241.032 124.2C239.365 126.8 237.665 129.433 235.932 132.1C238.665 128.967 241.599 125.933 244.732 123C247.865 120 250.865 117.567 253.732 115.7C254.599 115.1 255.499 114.6 256.432 114.2C257.365 113.8 258.332 113.6 259.332 113.6C261.132 113.6 262.032 114.3 262.032 115.7C262.032 116.767 261.399 118.033 260.132 119.5C258.599 121.3 256.932 123.3 255.132 125.5C253.332 127.7 251.599 129.933 249.932 132.2C248.332 134.467 246.999 136.567 245.932 138.5C244.932 140.433 244.432 142 244.432 143.2C244.432 143.867 244.599 144.367 244.932 144.7C245.332 144.967 245.665 145.1 245.932 145.1C246.932 145.1 248.032 144.7 249.232 143.9C250.499 143.1 251.699 142.167 252.832 141.1C254.032 139.967 255.065 138.9 255.932 137.9C256.865 136.9 257.465 136.233 257.732 135.9C257.999 135.9 258.132 136.1 258.132 136.5C258.132 137.1 257.999 137.567 257.732 137.9C256.799 138.9 255.565 140.133 254.032 141.6C252.499 143.067 250.865 144.367 249.132 145.5C247.399 146.567 245.732 147.1 244.132 147.1ZM259.527 147.1C257.06 147.1 255.827 145.7 255.827 142.9C255.827 141.3 256.293 139.4 257.227 137.2C258.16 134.933 259.56 132.567 261.427 130.1C262.76 128.433 264.393 126.667 266.327 124.8C268.26 122.867 270.36 121.033 272.627 119.3C274.96 117.567 277.327 116.167 279.727 115.1C282.127 113.967 284.46 113.4 286.727 113.4C287.727 113.4 288.427 113.567 288.827 113.9C289.227 114.167 289.493 114.467 289.627 114.8C289.76 115.067 289.76 115.267 289.627 115.4C289.56 115.533 289.46 115.567 289.327 115.5C289.06 115.367 288.527 115.3 287.727 115.3C285.327 115.3 282.46 116.467 279.127 118.8C275.86 121.067 272.627 124.033 269.427 127.7C267.16 130.233 265.293 132.733 263.827 135.2C262.36 137.6 261.393 139.6 260.927 141.2C260.793 141.733 260.727 142.2 260.727 142.6C260.727 143.533 261.093 144 261.827 144C262.293 144 262.927 143.8 263.727 143.4C264.527 142.933 265.56 142.167 266.827 141.1C268.827 139.367 270.793 137.333 272.727 135C274.727 132.667 276.693 130.3 278.627 127.9C280.56 125.433 282.427 123.167 284.227 121.1C286.093 119.033 287.86 117.467 289.527 116.4C291.66 115 293.127 114.2 293.927 114C294.793 113.8 295.493 113.667 296.027 113.6C295.693 114 294.96 114.933 293.827 116.4C292.693 117.867 291.493 119.433 290.227 121.1C288.96 122.7 287.927 124.033 287.127 125.1C285.927 126.833 284.627 128.7 283.227 130.7C281.893 132.7 280.66 134.6 279.527 136.4C278.46 138.133 277.727 139.567 277.327 140.7C276.993 141.833 276.827 142.667 276.827 143.2C276.827 144.267 277.26 144.8 278.127 144.8C278.727 144.8 279.427 144.567 280.227 144.1C281.093 143.567 281.96 142.967 282.827 142.3C283.96 141.367 285.027 140.4 286.027 139.4C287.027 138.333 288.06 137.167 289.127 135.9C289.393 135.9 289.527 136.1 289.527 136.5C289.527 137.1 289.393 137.567 289.127 137.9C288.26 138.9 287.193 140 285.927 141.2C284.727 142.4 283.527 143.467 282.327 144.4C281.46 145.133 280.46 145.767 279.327 146.3C278.193 146.833 277.093 147.1 276.027 147.1C274.493 147.1 273.427 146.733 272.827 146C272.227 145.267 271.927 144.333 271.927 143.2C271.927 141.867 272.227 140.433 272.827 138.9C273.427 137.3 274.093 135.8 274.827 134.4C273.96 135.467 272.86 136.767 271.527 138.3C270.193 139.767 268.993 141 267.927 142C266.46 143.333 265.06 144.533 263.727 145.6C262.393 146.6 260.993 147.1 259.527 147.1Z" fill="url(#paint1_linear_316_2)"/>
<defs>
<linearGradient id="paint0_linear_316_2" x1="81" y1="0" x2="81" y2="120" gradientUnits="userSpaceOnUse">
<stop stop-color="#A57C00"/>
<stop offset="1" stop-color="#DFAA09"/>
</linearGradient>
<linearGradient id="paint1_linear_316_2" x1="226" y1="62" x2="226" y2="182" gradientUnits="userSpaceOnUse">
<stop stop-color="#A57C00"/>
<stop offset="1" stop-color="#DFAA09"/>
</linearGradient>
</defs>
</svg>
